HIERARCHY
ROOT hip
{
  OFFSET -117.387 84.6331 48.3734
  CHANNELS 6 Xposition Yposition Zposition Zrotation Xrotation Yrotation
  JOINT abdomen
  {
    OFFSET 0 20.6881 -0.73152
    CHANNELS 3 Zrotation Xrotation Yrotation
    JOINT chest
    {
      OFFSET 0 11.7043 -0.48768
      CHANNELS 3 Zrotation Xrotation Yrotation
      JOINT neck
      {
        OFFSET 0 22.1894 -2.19456
        CHANNELS 3 Zrotation Xrotation Yrotation
        JOINT head
        {
          OFFSET -0.24384 7.07133 1.2192
          CHANNELS 3 Zrotation Xrotation Yrotation
          JOINT leftEye
          {
            OFFSET 4.14528 8.04674 8.04672
            CHANNELS 3 Zrotation Xrotation Yrotation
            End Site
            {
              OFFSET 1 0 0
            }
          }
          JOINT rightEye
          {
            OFFSET -3.6576 8.04674 8.04672
            CHANNELS 3 Zrotation Xrotation Yrotation
            End Site
            {
              OFFSET 1 0 0
            }
          }
        }
      }
      JOINT rCollar
      {
        OFFSET -2.68224 19.2634 -4.8768
        CHANNELS 3 Zrotation Xrotation Yrotation
        JOINT rShldr
        {
          OFFSET -8.77824 -1.95073 1.46304
          CHANNELS 3 Zrotation Xrotation Yrotation
          JOINT rForeArm
          {
            OFFSET -28.1742 -1.7115 0.48768
            CHANNELS 3 Zrotation Xrotation Yrotation
            JOINT rHand
            {
              OFFSET -22.5879 0.773209 7.07136
              CHANNELS 3 Zrotation Xrotation Yrotation
              JOINT rThumb1
              {
                OFFSET -1.2192 -0.487915 3.41376
                CHANNELS 3 Zrotation Xrotation Yrotation
                JOINT rThumb2
                {
                  OFFSET -3.37035 -0.52449 3.41376
                  CHANNELS 3 Zrotation Xrotation Yrotation
                  End Site
                  {
                    OFFSET -1.78271 -1.18214 1.43049
                  }
                }
              }
              JOINT rIndex1
              {
                OFFSET -7.75947 0.938293 5.60832
                CHANNELS 3 Zrotation Xrotation Yrotation
                JOINT rIndex2
                {
                  OFFSET -2.54057 -0.884171 1.56538
                  CHANNELS 3 Zrotation Xrotation Yrotation
                  End Site
                  {
                    OFFSET -1.62519 -0.234802 1.16502
                  }
                }
              }
              JOINT rMid1
              {
                OFFSET -8.24714 1.18213 3.41376
                CHANNELS 3 Zrotation Xrotation Yrotation
                JOINT rMid2
                {
                  OFFSET -3.10165 -0.590103 1.0647
                  CHANNELS 3 Zrotation Xrotation Yrotation
                  End Site
                  {
                    OFFSET -2.48547 -0.328903 0.83742
                  }
                }
              }
              JOINT rRing1
              {
                OFFSET -8.82822 0.546677 1.51678
                CHANNELS 3 Zrotation Xrotation Yrotation
                JOINT rRing2
                {
                  OFFSET -2.60934 -0.819778 -0.0198488
                  CHANNELS 3 Zrotation Xrotation Yrotation
                  End Site
                  {
                    OFFSET -2.33842 -0.294052 0.168128
                  }
                }
              }
              JOINT rPinky1
              {
                OFFSET -8.27202 -0.0477905 -0.4584
                CHANNELS 3 Zrotation Xrotation Yrotation
                JOINT rPinky2
                {
                  OFFSET -1.82734 -0.647385 -0.700984
                  CHANNELS 3 Zrotation Xrotation Yrotation
                  End Site
                  {
                    OFFSET -1.69225 -0.51767 -0.607171
                  }
                }
              }
            }
          }
        }
      }
      JOINT lCollar
      {
        OFFSET 2.68224 19.2634 -4.8768
        CHANNELS 3 Zrotation Xrotation Yrotation
        JOINT lShldr
        {
          OFFSET 8.77824 -1.95073 1.46304
          CHANNELS 3 Zrotation Xrotation Yrotation
          JOINT lForeArm
          {
            OFFSET 28.1742 -1.7115 0.48768
            CHANNELS 3 Zrotation Xrotation Yrotation
            JOINT lHand
            {
              OFFSET 22.5879 0.773209 7.07136
              CHANNELS 3 Zrotation Xrotation Yrotation
              JOINT lThumb1
              {
                OFFSET 1.2192 -0.487915 3.41376
                CHANNELS 3 Zrotation Xrotation Yrotation
                JOINT lThumb2
                {
                  OFFSET 3.37035 -0.52449 3.41376
                  CHANNELS 3 Zrotation Xrotation Yrotation
                  End Site
                  {
                    OFFSET 1.78271 -1.18214 1.43049
                  }
                }
              }
              JOINT lIndex1
              {
                OFFSET 7.75947 0.938293 5.60832
                CHANNELS 3 Zrotation Xrotation Yrotation
                JOINT lIndex2
                {
                  OFFSET 2.54057 -0.884171 1.56538
                  CHANNELS 3 Zrotation Xrotation Yrotation
                  End Site
                  {
                    OFFSET 1.62519 -0.234802 1.16502
                  }
                }
              }
              JOINT lMid1
              {
                OFFSET 8.24714 1.18213 3.41376
                CHANNELS 3 Zrotation Xrotation Yrotation
                JOINT lMid2
                {
                  OFFSET 3.10165 -0.590103 1.0647
                  CHANNELS 3 Zrotation Xrotation Yrotation
                  End Site
                  {
                    OFFSET 2.48547 -0.328903 0.83742
                  }
                }
              }
              JOINT lRing1
              {
                OFFSET 8.82822 0.546677 1.51678
                CHANNELS 3 Zrotation Xrotation Yrotation
                JOINT lRing2
                {
                  OFFSET 2.60934 -0.819778 -0.0198488
                  CHANNELS 3 Zrotation Xrotation Yrotation
                  End Site
                  {
                    OFFSET 2.33842 -0.294052 0.168128
                  }
                }
              }
              JOINT lPinky1
              {
                OFFSET 8.27202 -0.0477905 -0.4584
                CHANNELS 3 Zrotation Xrotation Yrotation
                JOINT lPinky2
                {
                  OFFSET 1.82734 -0.647385 -0.700984
                  CHANNELS 3 Zrotation Xrotation Yrotation
                  End Site
                  {
                    OFFSET 1.69225 -0.51767 -0.607171
                  }
                }
              }
            }
          }
        }
      }
    }
  }
  JOINT rButtock
  {
    OFFSET -8.77824 4.35084 1.2192
    CHANNELS 3 Zrotation Xrotation Yrotation
    JOINT rThigh
    {
      OFFSET 0 -1.70687 -2.19456
      CHANNELS 3 Zrotation Xrotation Yrotation
      JOINT rShin
      {
        OFFSET 0 -36.8199 0.73152
        CHANNELS 3 Zrotation Xrotation Yrotation
        JOINT rFoot
        {
          OFFSET 0.73152 -45.1104 -5.12064
          CHANNELS 3 Zrotation Xrotation Yrotation
          End Site
          {
            OFFSET -1.1221 -3.69964 12.103
          }
        }
      }
    }
  }
  JOINT lButtock
  {
    OFFSET 8.77824 4.35084 1.2192
    CHANNELS 3 Zrotation Xrotation Yrotation
    JOINT lThigh
    {
      OFFSET 0 -1.70687 -2.19456
      CHANNELS 3 Zrotation Xrotation Yrotation
      JOINT lShin
      {
        OFFSET 0 -36.8199 0.73152
        CHANNELS 3 Zrotation Xrotation Yrotation
        JOINT lFoot
        {
          OFFSET -0.73152 -45.1104 -5.12064
          CHANNELS 3 Zrotation Xrotation Yrotation
          End Site
          {
            OFFSET 1.1221 -3.69964 12.103
          }
        }
      }
    }
  }
}
MOTION
Frames:	4
Frame Time:	0.00833333
80.109 84.8839 -86.1207 0.147523 -0.000239383 -0.00252447 -0.194078 -0.000752046 -0.00553945 -0.0535366 -0.00112971 -0.00927452 -3.04241e-015 0 3.10601e-017 -9.18137e-015 3.18055e-015 9.62863e-017 -0 0 0 -0 0 0 -1.49226e-015 -3.88251e-019 1.49089e-016 -3.02475e-014 -3.29237e-016 9.93923e-016 -5.5123e-013 1.62606e-013 9.54166e-015 -6.33435e-012 -1.78558e-013 4.13472e-014 -1.4939e-011 -3.03232e-014 1.33583e-013 -2.5805e-011 -5.08889e-014 2.38542e-013 -1.49319e-011 -2.8625e-014 1.30403e-013 7.73091 5.47488 0.417314 -1.494e-011 -3.05134e-014 1.39944e-013 2.90554 0.965183 0.102902 -1.49331e-011 -3.03147e-014 1.39149e-013 10.2786 0.731801 0.0259123 -1.49464e-011 -2.66371e-014 1.43125e-013 2.22167 -0.733487 -0.20892 -1.589e-015 -7.76503e-019 -1.49089e-016 -3.41674e-014 2.85753e-016 -5.96354e-016 -5.55056e-013 -1.64196e-013 9.54166e-015 -6.33297e-012 1.67948e-013 6.36111e-014 -1.49404e-011 6.44225e-015 1.36764e-013 -2.57947e-011 1.27222e-014 2.44108e-013 -1.49434e-011 7.15625e-015 1.43125e-013 -7.73091 5.47488 -0.417314 -1.49401e-011 6.75868e-015 1.43125e-013 -2.90554 0.965183 -0.102902 -1.49463e-011 6.4605e-015 1.4233e-013 -10.2786 0.731801 -0.0259123 -1.49379e-011 9.1441e-015 1.36764e-013 -2.22167 -0.733487 0.20892 -2.03217e-016 0 -3.88251e-019 0.355867 -2.82713 -0.0340698 -0.00665516 -0.431856 -0.0584482 -0.502558 3.25829 0.123802 2.03217e-016 0 3.88251e-019 -0.651348 -3.58304 0.0525567 0.00445992 0.937458 0.0381195 0.504955 2.64491 -0.11159 
74.6524 83.4707 -89.6268 10.0878 -15.5308 -23.8783 -1.61212 3.63067 1.2275 0.106357 -1.13347 0.275251 -2.8905 0.601968 -0.0527022 2.2843 6.6911 -0.636803 -0 0 0 -0 0 0 6.369e-015 1.151e-013 -2.72743e-014 22.3753 1.76991 -0.994388 -5.29257 -2.66563 7.96364 0.008796 2.08195 0.291903 -1.45485e-010 -1.7498e-010 -1.58634e-010 -2.52562e-010 -3.04003e-010 -2.72937e-010 -1.4548e-010 -1.74977e-010 -1.5864e-010 7.73091 5.47488 0.417314 -1.45488e-010 -1.7498e-010 -1.58629e-010 2.90554 0.965183 0.102902 -1.45479e-010 -1.74978e-010 -1.58631e-010 10.2786 0.731801 0.0259123 -1.4549e-010 -1.74975e-010 -1.58627e-010 2.22167 -0.733487 -0.20892 6.31481e-015 1.151e-013 -2.75022e-014 -20.1705 5.39188 -1.32727 7.84691 -4.78619 -10.6439 -0.00417815 -1.4343 0.20135 7.6759e-011 -2.512e-010 -7.40122e-011 1.33298e-010 -4.33914e-010 -1.27562e-010 7.67565e-011 -2.51204e-010 -7.4003e-011 -7.73091 5.47488 -0.417314 7.67589e-011 -2.51202e-010 -7.40067e-011 -2.90554 0.965183 -0.102902 7.67525e-011 -2.51202e-010 -7.40085e-011 -10.2786 0.731801 -0.0259123 7.67613e-011 -2.512e-010 -7.40158e-011 -2.22167 -0.733487 0.20892 -2.03217e-016 0 -3.88251e-019 0.284707 -7.02307 -1.15033 -0.0184111 11.9534 0.0957804 -0.0890695 -1.04391 3.37216 2.03217e-016 0 3.88251e-019 -1.46476 -6.91553 -1.32634 0.00517979 8.35713 -0.0511155 0.316775 -0.541076 -2.37776 
74.6032 83.4841 -89.1978 7.4569 -22.6987 -52.7314 -3.26724 7.48594 2.53902 0.297297 -2.33051 0.574335 -5.9425 1.23593 -0.113408 4.87454 13.7541 -1.34966 -0 0 0 -0 0 0 1.91932e-014 3.00356e-013 -5.62654e-014 46.0906 3.62866 -2.05072 -10.0941 -5.31543 16.4434 -0.00501801 4.27408 0.600562 -3.24995e-010 -3.73298e-010 -3.62503e-010 -5.64248e-010 -6.48753e-010 -6.23643e-010 -3.24993e-010 -3.73295e-010 -3.62511e-010 7.73091 5.47488 0.417314 -3.25e-010 -3.73299e-010 -3.62498e-010 2.90554 0.965183 0.102902 -3.24989e-010 -3.73294e-010 -3.62502e-010 10.2786 0.731801 0.0259123 -3.24998e-010 -3.73292e-010 -3.62497e-010 2.22167 -0.733487 -0.20892 1.9186e-014 3.00357e-013 -5.64176e-014 -41.217 11.0893 -2.77591 14.2282 -9.2867 -22.1168 0.00238771 -2.95453 0.415191 1.7093e-010 -5.56762e-010 -1.68872e-010 2.96878e-010 -9.61784e-010 -2.91141e-010 1.70928e-010 -5.56771e-010 -1.68859e-010 -7.73091 5.47488 -0.417314 1.70929e-010 -5.56765e-010 -1.68867e-010 -2.90554 0.965183 -0.102902 1.70923e-010 -5.56766e-010 -1.6887e-010 -10.2786 0.731801 -0.0259123 1.70932e-010 -5.56764e-010 -1.68879e-010 -2.22167 -0.733487 0.20892 -2.03217e-016 0 -3.88251e-019 0.0361876 -11.4555 -2.38871 -0.110437 25.0706 0.280098 0.909878 -5.52377 7.00993 2.03217e-016 0 3.88251e-019 -2.47294 -10.4225 -2.84169 0.0319034 16.2125 -0.150615 -0.151443 -3.88616 -4.75448 
74.5579 83.4682 -88.762 1.50184 -16.2079 -76.2435 -4.92404 10.8732 3.75366 0.459933 -3.39782 0.845627 -8.66818 1.8059 -0.158176 7.32354 20.0631 -2.02003 -0 0 0 -0 0 0 2.20915e-014 3.45301e-013 -8.2121e-014 67.3109 5.30333 -2.99457 -13.711 -7.38026 24.0768 -0.037574 6.24521 0.880357 -4.06576e-010 -5.24879e-010 -4.7617e-010 -7.06077e-010 -9.11907e-010 -8.19288e-010 -4.06578e-010 -5.24875e-010 -4.7618e-010 7.73091 5.47488 0.417314 -4.06583e-010 -5.24879e-010 -4.76166e-010 2.90554 0.965183 0.102902 -4.06571e-010 -5.24873e-010 -4.76171e-010 10.2786 0.731801 0.0259123 -4.06578e-010 -5.24871e-010 -4.76167e-010 2.22167 -0.733487 -0.20892 2.21224e-014 3.45302e-013 -8.22083e-014 -59.7365 16.1402 -4.12713 18.4113 -12.3753 -32.6686 0.0177805 -4.3027 0.605568 2.60158e-010 -7.53614e-010 -2.2231e-010 4.51484e-010 -1.30177e-009 -3.83176e-010 2.60156e-010 -7.53627e-010 -2.22295e-010 -7.73091 5.47488 -0.417314 2.60157e-010 -7.53618e-010 -2.22306e-010 -2.90554 0.965183 -0.102902 2.6015e-010 -7.53619e-010 -2.2231e-010 -10.2786 0.731801 -0.0259123 2.6016e-010 -7.53617e-010 -2.22321e-010 -2.22167 -0.733487 0.20892 -2.03217e-016 0 -3.88251e-019 -0.364248 -15.392 -3.48206 -0.280207 36.7228 0.496552 2.20906 -9.5096 10.0065 2.03217e-016 0 3.88251e-019 -3.58486 -13.5514 -4.1713 0.0807657 23.1963 -0.247995 -0.817769 -6.86399 -6.96014 
